<svg id="fullsc" xmlns="http://www.w3.org/2000/svg" width="14.745" height="14.745" viewBox="0 0 14.745 14.745">
  <path id="Path_3899" data-name="Path 3899" d="M67.411,0V1.27H70.93L66.469,5.732l.9.9,4.461-4.462V5.688H73.1V0Z" transform="translate(-58.354 0)" fill="#161615"/>
  <path id="Path_3900" data-name="Path 3900" d="M1.271,70.93V67.411H0V73.1H5.688V71.829H2.17l4.461-4.461-.9-.9Z" transform="translate(0 -58.354)" fill="#161615"/>
  <path id="Path_3901" data-name="Path 3901" d="M66.469,67.367l4.462,4.461H67.411V73.1H73.1V67.411H71.829V70.93l-4.461-4.461Z" transform="translate(-58.354 -58.354)" fill="#161615"/>
  <path id="Path_3902" data-name="Path 3902" d="M0,0V5.688H1.271V2.169L5.732,6.631l.9-.9L2.169,1.27H5.688V0Z" transform="translate(0 0)" fill="#161615"/>
</svg>
